<svg width="2149" height="1823" viewBox="0 0 2149 1823" fill="none" xmlns="http://www.w3.org/2000/svg">
<g opacity="0.3" filter="url(#filter0_f)">
<path d="M867.333 761.396C895.207 757.719 922.587 729.335 950.602 729.083C957.825 729.615 975.212 723.351 986.972 694.048C1015.69 668.83 1033.08 578.321 1067.77 561.522C1093.32 549.155 1123.99 535.985 1152.25 547.445C1174.03 556.281 1189.83 575.806 1202.26 594.965C1220.27 622.719 1233.45 654.075 1239.85 686.572C1260.73 792.512 1222.67 902.993 1174.21 995.899C1115.16 1109.1 1025.21 1200.42 920.303 1272.18C877.042 1301.78 831.635 1327.14 781.903 1344.04C736.114 1359.6 688.367 1370.42 640.453 1376.86C579.458 1385.06 516.119 1384.62 456.896 1366.42C411.853 1352.57 378.38 1321.29 353.592 1281.73C319.705 1227.66 318.433 1162.7 344.916 1104.62C361.25 1068.8 395.424 1031.82 438.531 1037.54C471.414 1041.91 498.776 1065.12 526.125 1081.83C544.402 1092.99 570.489 1108.42 590.788 1093.72C625.125 1068.86 651.378 1030.47 674.026 995.518C702.957 950.87 717.658 900.246 739.857 852.402C752.642 824.847 776.04 804.795 800.657 787.897C820.449 774.31 843.436 764.548 867.333 761.396Z" fill="#7928CA"/>
</g>
<g opacity="0.3" filter="url(#filter1_f)">
<path d="M898.079 673.55C914.791 682.635 941.069 678.008 956.494 689.023C960.234 692.189 972.238 695.684 990.337 684.336C1016.09 681.973 1061.63 639.383 1087.3 644.007C1106.19 647.41 1128.22 652.418 1139.11 669.935C1147.51 683.44 1148.38 700.41 1147.55 715.841C1146.36 738.193 1141.08 760.59 1131.65 780.916C1100.89 847.181 1036.09 892.468 972.596 923.997C895.226 962.414 809.669 976.557 723.713 974.055C688.266 973.024 653.331 968.819 619.398 958.266C588.156 948.549 557.728 935.463 528.953 919.911C492.323 900.113 457.848 874.66 432.7 841.123C413.573 815.616 407.714 785.179 409.901 753.674C412.89 710.603 438.055 674.561 475.663 653.334C498.858 640.241 532.276 633.614 553.576 653.908C569.825 669.389 575.557 692.973 583.865 713.002C589.418 726.387 597.547 745.211 614.502 745.251C643.184 745.319 672.827 734.771 699.131 724.668C732.732 711.761 760.927 689.92 792.116 672.586C810.08 662.602 830.863 660.947 851.056 661.503C867.292 661.95 883.753 665.761 898.079 673.55Z" fill="#EE0000"/>
</g>
<g opacity="0.3" filter="url(#filter2_f)">
<path d="M1598.09 614.412C1605 638.241 1631.85 649.713 1636.01 675.322C1636.6 682.212 1644.13 695.162 1669.52 691.845C1694 706.07 1769.75 678.431 1788.25 702.205C1801.87 719.707 1816.86 741.536 1811.57 773.006C1807.49 797.27 1793.91 821.188 1780.15 841.839C1760.21 871.752 1736.68 898.957 1711.27 920.496C1628.42 990.712 1533.57 1008.99 1451.49 1009.24C1351.48 1009.55 1264.84 970.927 1191.91 909.159C1161.84 883.686 1134.89 854.2 1114.18 816.666C1095.12 782.109 1079.62 743.472 1067.64 702.568C1052.39 650.497 1043.8 592.115 1050.19 528.95C1055.05 480.908 1075.65 435.095 1104.19 393.272C1143.2 336.095 1195.62 303.63 1246.4 299.971C1277.71 297.715 1312.49 311.282 1313.93 353.632C1315.03 385.939 1300.11 422.248 1290.43 455.417C1283.97 477.583 1275.16 508.976 1289.93 520.537C1314.91 540.094 1349.7 545.711 1381.2 549.672C1421.45 554.732 1464.52 543.843 1506.4 541.18C1530.52 539.646 1550.06 551.475 1567.22 565.942C1581.02 577.575 1592.17 593.983 1598.09 614.412Z" fill="#F7B955"/>
</g>
<defs>
<filter id="filter0_f" x="0" y="171" width="1666.43" height="1651.81" filterUnits="userSpaceOnUse" color-interpolation-filters="sRGB">
<feFlood flood-opacity="0" result="BackgroundImageFix"/>
<feBlend mode="normal" in="SourceGraphic" in2="BackgroundImageFix" result="shape"/>
<feGaussianBlur stdDeviation="125" result="effect1_foregroundBlur"/>
</filter>
<filter id="filter1_f" x="143" y="306" width="1285.32" height="965.599" filterUnits="userSpaceOnUse" color-interpolation-filters="sRGB">
<feFlood flood-opacity="0" result="BackgroundImageFix"/>
<feBlend mode="normal" in="SourceGraphic" in2="BackgroundImageFix" result="shape"/>
<feGaussianBlur stdDeviation="125" result="effect1_foregroundBlur"/>
</filter>
<filter id="filter2_f" x="657" y="0" width="1491.1" height="1393.09" filterUnits="userSpaceOnUse" color-interpolation-filters="sRGB">
<feFlood flood-opacity="0" result="BackgroundImageFix"/>
<feBlend mode="normal" in="SourceGraphic" in2="BackgroundImageFix" result="shape"/>
<feGaussianBlur stdDeviation="125" result="effect1_foregroundBlur"/>
</filter>
</defs>
</svg>
